<mxfile host="app.diagrams.net" modified="2023-09-05T06:53:38.514Z" agent="Mozilla/5.0 (Macintosh; Intel Mac OS X 10_15_7) AppleWebKit/605.1.15 (KHTML, like Gecko) Version/16.5.1 Safari/605.1.15" version="21.7.2" etag="S3cgxOXnVOtJGfWTqmdW" type="github">
  <diagram name="第 1 页" id="MY-SYG66Se0dJZQF7v47">
    <mxGraphModel>
      <root>
        <mxCell id="0" />
        <mxCell id="1" parent="0" />
      </root>
    </mxGraphModel>
  </diagram>
</mxfile>
